<?xml version="1.0" encoding="UTF-8"?>
<svg width="277.4px" height="95.4px" version="1.1" viewBox="0 0 277.4 95.4" xmlns="http://www.w3.org/2000/svg">
 <defs>
  <linearGradient id="a" x2="277.44" y1="47.708" y2="47.708" gradientUnits="userSpaceOnUse">
   <stop stop-color="#5A5AAA" offset="0"/>
   <stop stop-color="#FB5E81" offset="1"/>
  </linearGradient>
 </defs>
 <path d="m35 47.4h17.1c0.5 0 0.8-0.4 0.8-0.8v-3.9c0-0.5-0.4-0.8-0.8-0.8h-9.8c-0.8 0-1.4-0.6-1.4-1.4v-24.9c0-0.5-0.4-0.8-0.8-0.8h-5c-0.5 0-0.8 0.4-0.8 0.8v30.9c-0.2 0.5 0.2 0.9 0.7 0.9zm78.6-32.6h-5.1c-0.4 0-0.7 0.2-0.8 0.6l-7 21.5c-0.1 0.3-0.3 0.4-0.6 0.4s-0.5-0.2-0.6-0.5l-6.8-21.5c-0.1-0.4-0.4-0.6-0.8-0.6h-5.1c-0.3 0-0.5 0.1-0.7 0.3s-0.2 0.5-0.1 0.8l10 30.9c0.1 0.4 0.4 0.6 0.8 0.6h6.6c0.4 0 0.7-0.2 0.8-0.6l10.3-30.9c0.1-0.3 0-0.5-0.1-0.8-0.3-0.1-0.6-0.2-0.8-0.2zm4.9 32.6h22.9c0.5 0 0.8-0.4 0.8-0.8v-3.9c0-0.5-0.4-0.8-0.8-0.8h-15.6c-0.8 0-1.4-0.6-1.4-1.4v-5.9c0-0.8 0.6-1.4 1.4-1.4h13.8c0.5 0 0.8-0.4 0.8-0.8v-3.4c0-0.5-0.4-0.8-0.8-0.8h-13.8c-0.8 0-1.4-0.6-1.4-1.4v-4.9c0-0.8 0.6-1.4 1.4-1.4h15.3c0.5 0 0.8-0.4 0.8-0.8v-3.9c0-0.5-0.4-0.8-0.8-0.8h-22.6c-0.5 0-0.8 0.4-0.8 0.8v30.9c-0.1 0.3 0.3 0.7 0.8 0.7zm54.5-1.3c-0.2-0.7-0.3-1.4-0.4-2.2s-0.1-1.5-0.2-2.2c0-0.7-0.1-1.3-0.1-1.9-0.1-0.8-0.2-1.7-0.3-2.5-0.2-0.8-0.4-1.6-0.8-2.2-0.4-0.7-0.8-1.2-1.4-1.7-0.3-0.2-0.8-0.6-1.6-0.9-0.2-0.1-0.3-0.3-0.3-0.5s0.1-0.4 0.3-0.5c1.5-0.7 2.6-1.7 3.3-2.9 0.8-1.4 1.2-3 1.2-4.9 0-1.2-0.2-2.4-0.7-3.5-0.4-1.1-1.1-2-1.9-2.8s-1.8-1.5-3-1.9c-1.2-0.5-2.5-0.7-3.9-0.7h-16.8c-0.5 0-0.8 0.4-0.8 0.8v30.9c0 0.5 0.4 0.8 0.8 0.8h5c0.5 0 0.8-0.4 0.8-0.8v-10.6c0-0.8 0.6-1.4 1.4-1.4h6.2c1.9 0 3.3 0.4 4.2 1.3 0.8 0.8 1.4 2.2 1.7 4 0.2 1.3 0.3 2.8 0.4 4.2 0.1 1.1 0.2 2 0.5 2.9 0.1 0.4 0.4 0.6 0.8 0.6h4.7c0.3 0 0.5-0.1 0.7-0.3s0.2-0.5 0.1-0.7c0.1-0.2 0.1-0.3 0.1-0.4zm-8.3-17.5c-0.9 0.8-2.2 1.2-4 1.2h-6.9c-0.8 0-1.4-0.6-1.4-1.4v-7.1c0-0.8 0.6-1.4 1.4-1.4h6.9c1.7 0 3.1 0.4 4 1.2s1.4 2 1.4 3.7c-0.1 1.7-0.5 3-1.4 3.8zm-155.4 18.3c2 0.9 4.3 1.3 6.7 1.3 2 0 3.9-0.3 5.5-0.9 1.7-0.6 3.1-1.5 4.4-2.6s2.2-2.6 3-4.2c0.6-1.3 1-2.7 1.3-4.2 0-0.3 0-0.5-0.2-0.7s-0.4-0.3-0.6-0.3h-4.8c-0.4 0-0.8 0.3-0.8 0.7-0.4 1.9-1.1 3.4-2.2 4.6-1.3 1.4-3.1 2.1-5.4 2.1-1.7 0-3.1-0.3-4.3-1-1.4-0.7-2.3-1.6-3.1-2.7-0.7-1.1-1.3-2.3-1.6-3.7-0.3-1.3-0.5-2.7-0.5-4.1 0-1.5 0.2-2.9 0.5-4.3s0.9-2.6 1.6-3.7 1.7-2 2.9-2.6c1.2-0.7 2.6-1 4.3-1 0.9 0 1.8 0.2 2.7 0.5 0.8 0.3 1.6 0.7 2.3 1.3 0.7 0.5 1.2 1.2 1.7 1.9 0.3 0.5 0.5 1 0.7 1.6 0.1 0.4 0.4 0.6 0.8 0.6h4.8c0.3 0 0.5-0.1 0.7-0.3s0.2-0.5 0.2-0.7c-0.3-1.3-0.7-2.6-1.3-3.7-0.8-1.4-1.9-2.7-3.1-3.7-1.3-1-2.7-1.7-4.3-2.3s-3.4-0.8-5.2-0.8c-2.5 0-4.8 0.4-6.7 1.3-2 0.9-3.7 2.1-5 3.6-1.4 1.5-2.4 3.4-3.2 5.5-0.7 2.1-1.1 4.4-1.1 6.8s0.4 4.6 1.1 6.7c0.7 2 1.8 3.9 3.2 5.4 1.3 1.5 3 2.7 5 3.6zm76.2-15.7c0-2.4-0.4-4.7-1.1-6.8s-1.8-3.9-3.2-5.5c-1.4-1.5-3-2.8-5-3.7s-4.2-1.3-6.8-1.3c-2.5 0-4.8 0.4-6.7 1.3-2 0.9-3.7 2.1-5 3.6-1.4 1.5-2.4 3.4-3.2 5.5-0.7 2.1-1.1 4.4-1.1 6.8s0.4 4.6 1.1 6.7c0.7 2 1.8 3.9 3.2 5.4s3.1 2.7 5 3.6c2 0.9 4.3 1.3 6.7 1.3 2.5 0 4.8-0.4 6.8-1.3s3.7-2.1 5-3.6c1.4-1.5 2.4-3.3 3.2-5.4 0.7-1.9 1.1-4.2 1.1-6.6zm-7.3 4.2c-0.3 1.3-0.9 2.6-1.6 3.7s-1.7 2-2.9 2.6c-1.2 0.7-2.6 1-4.3 1s-3.1-0.3-4.3-1-2.1-1.6-2.9-2.7c-0.7-1.1-1.3-2.3-1.6-3.7-0.3-1.3-0.5-2.7-0.5-4.1 0-1.5 0.2-2.9 0.5-4.3s0.9-2.7 1.6-3.7c0.7-1.1 1.7-2 2.9-2.6 1.2-0.7 2.6-1 4.3-1s3.1 0.3 4.3 1 2.2 1.5 2.9 2.6 1.3 2.4 1.6 3.7c0.3 1.4 0.5 2.8 0.5 4.3s-0.1 2.8-0.5 4.2zm-35.4 23.2h-4.8c-0.4 0-0.7 0.3-0.8 0.7l-4.9 20.4c-0.1 0.3-0.3 0.5-0.7 0.5-0.3 0-0.6-0.2-0.7-0.5l-5.1-20.4c-0.1-0.4-0.4-0.6-0.8-0.6h-5c-0.4 0-0.7 0.3-0.8 0.6l-5.2 20.1c-0.1 0.3-0.3 0.5-0.7 0.5-0.3 0-0.6-0.2-0.7-0.5l-4.7-20.1c-0.1-0.4-0.4-0.7-0.8-0.7h-4.9c-0.3 0-0.5 0.1-0.7 0.3s-0.2 0.5-0.1 0.7l8.2 30.9c0.1 0.4 0.4 0.6 0.8 0.6h5.6c0.4 0 0.7-0.3 0.8-0.6l5-20.3c0.1-0.3 0.3-0.5 0.6-0.5s0.6 0.2 0.6 0.5l5.1 20.3c0.1 0.4 0.4 0.6 0.8 0.6h5.5c0.4 0 0.7-0.3 0.8-0.6l8.3-30.9c0.1-0.3 0-0.5-0.1-0.7 0-0.1-0.3-0.3-0.6-0.3zm66.1 31.3c-0.2-0.7-0.3-1.4-0.4-2.2-0.1-0.7-0.1-1.5-0.2-2.2 0-0.7-0.1-1.3-0.1-1.9-0.1-0.8-0.2-1.7-0.3-2.5-0.2-0.8-0.4-1.6-0.8-2.2-0.4-0.7-0.8-1.2-1.4-1.7-0.3-0.2-0.8-0.6-1.6-0.9-0.2-0.1-0.3-0.3-0.3-0.5s0.1-0.4 0.3-0.5c1.5-0.7 2.6-1.7 3.3-2.9 0.8-1.4 1.2-3 1.2-4.9 0-1.2-0.2-2.4-0.7-3.5-0.4-1.1-1.1-2-1.9-2.8s-1.8-1.5-3-1.9c-1.2-0.5-2.5-0.7-3.9-0.7h-16.7c-0.5 0-0.8 0.4-0.8 0.8v30.9c0 0.5 0.4 0.8 0.8 0.8h5c0.5 0 0.8-0.4 0.8-0.8v-10.6c0-0.8 0.6-1.4 1.4-1.4h6.2c1.9 0 3.3 0.4 4.2 1.3 0.8 0.8 1.4 2.2 1.7 4 0.2 1.3 0.3 2.8 0.4 4.2 0.1 1.1 0.2 2 0.5 2.9 0.1 0.4 0.4 0.6 0.8 0.6h4.7c0.3 0 0.5-0.1 0.7-0.3s0.2-0.5 0.1-0.7v-0.4zm-8.3-17.4c-0.9 0.8-2.2 1.2-4 1.2h-6.9c-0.8 0-1.4-0.6-1.4-1.4v-7.1c0-0.8 0.6-1.4 1.4-1.4h6.9c1.7 0 3.1 0.4 4 1.2s1.4 2 1.4 3.7c-0.1 1.7-0.5 3-1.4 3.8zm30.6-0.1c-0.4-0.6-0.3-1.3 0.1-1.8l10.4-10.5c0.3-0.3 0.3-0.7 0.2-0.9s-0.4-0.5-0.8-0.5h-5.5c-0.5 0-1 0.2-1.3 0.6l-11 11.7c-0.2 0.2-0.5 0.3-0.8 0.3-0.5 0-1.1-0.4-1.1-1.1v-10.7c0-0.5-0.4-0.8-0.8-0.8h-5c-0.5 0-0.8 0.4-0.8 0.8v30.9c0 0.5 0.4 0.8 0.8 0.8h5c0.5 0 0.8-0.4 0.8-0.8v-9.1c0-0.4 0.1-0.7 0.4-1l2.9-2.9c0.3-0.3 0.6-0.4 1-0.4 0.5 0 0.9 0.2 1.2 0.6l8.5 12.7c0.4 0.6 1.1 1 1.9 1h5.6c0.3 0 0.6-0.2 0.8-0.5 0.1-0.3 0.1-0.6-0.1-0.9zm-58.2-9.6c-1.4-1.5-3.1-2.8-5-3.7-2-0.9-4.2-1.3-6.8-1.3-2.5 0-4.8 0.4-6.7 1.3-2 0.9-3.7 2.1-5 3.6-1.4 1.5-2.4 3.4-3.2 5.5-0.7 2.1-1.1 4.4-1.1 6.8s0.4 4.6 1.1 6.7c0.7 2 1.8 3.9 3.2 5.4s3.1 2.7 5 3.6c2 0.9 4.3 1.3 6.7 1.3 2.5 0 4.8-0.4 6.8-1.3s3.7-2.1 5-3.6c1.4-1.5 2.4-3.3 3.2-5.4 0.7-2 1.1-4.3 1.1-6.7s-0.4-4.7-1.1-6.8c-0.8-2-1.8-3.8-3.2-5.4zm-3 16.4c-0.3 1.3-0.9 2.6-1.6 3.6-0.7 1.1-1.7 2-2.9 2.6-1.2 0.7-2.6 1-4.3 1s-3.1-0.3-4.3-1-2.2-1.5-2.9-2.6-1.3-2.3-1.6-3.6-0.5-2.7-0.5-4.1c0-1.5 0.2-2.9 0.5-4.3s0.9-2.7 1.6-3.7c0.7-1.1 1.7-2 2.9-2.6 1.2-0.7 2.6-1 4.3-1s3.1 0.3 4.3 1 2.2 1.5 2.9 2.6 1.3 2.4 1.6 3.7c0.3 1.4 0.5 2.8 0.5 4.3 0 1.4-0.1 2.8-0.5 4.1zm98.9-4.7c-1.1-0.7-2.1-1.2-3.2-1.5s-2-0.5-2.6-0.7c-2.1-0.5-3.8-1-5-1.3-1.3-0.3-2.3-0.7-3.1-1-0.8-0.4-1.3-0.8-1.6-1.2s-0.4-1-0.4-1.7c0-0.8 0.2-1.4 0.5-1.9s0.8-0.9 1.3-1.2 1.1-0.6 1.7-0.7 1.2-0.2 1.8-0.2c0.9 0 1.8 0.1 2.5 0.2 0.8 0.2 1.5 0.4 2.1 0.8s1.1 0.9 1.5 1.6c0.2 0.5 0.4 1 0.5 1.6 0.1 0.4 0.4 0.7 0.8 0.7h4.9c0.2 0 0.5-0.1 0.6-0.3 0.2-0.2 0.2-0.4 0.2-0.7-0.1-1.3-0.5-2.5-1-3.5-0.7-1.3-1.7-2.4-2.9-3.2s-2.6-1.5-4.2-1.8c-1.6-0.4-3.2-0.6-4.9-0.6-1.5 0-2.9 0.2-4.4 0.6s-2.8 1-3.9 1.8-2.1 1.8-2.8 3.1c-0.7 1.2-1.1 2.7-1.1 4.3 0 1.5 0.3 2.7 0.8 3.8 0.6 1 1.3 1.9 2.2 2.6s1.9 1.3 3.1 1.7 2.4 0.8 3.6 1.1l3.6 0.9c1.2 0.3 2.3 0.6 3.2 1 1 0.4 1.8 0.9 2.3 1.5 0.6 0.6 0.9 1.4 0.9 2.4 0 0.9-0.2 1.7-0.7 2.2-0.5 0.6-1 1-1.7 1.4-0.7 0.3-1.4 0.5-2.2 0.7-0.8 0.1-1.5 0.2-2.1 0.2-1 0-1.9-0.1-2.9-0.4-0.9-0.2-1.8-0.6-2.4-1.1-0.7-0.5-1.3-1.2-1.7-2-0.3-0.6-0.5-1.2-0.6-1.9-0.1-0.4-0.4-0.8-0.8-0.8h-4.8c-0.2 0-0.5 0.1-0.6 0.3-0.2 0.2-0.2 0.4-0.2 0.6 0.1 1.5 0.5 2.8 1.1 4 0.8 1.4 1.8 2.6 3.1 3.6 1.3 0.9 2.8 1.6 4.5 2.1 1.7 0.4 3.5 0.7 5.3 0.7 2.2 0 4.2-0.3 5.9-0.8s3.1-1.2 4.2-2.2c1.1-0.9 2-2 2.5-3.3 0.6-1.3 0.9-2.6 0.9-4.1 0-1.8-0.4-3.3-1.1-4.4-0.8-1.4-1.7-2.3-2.7-3zm108.2-54.2c-0.5-2.8-1.7-5.4-3.5-8.1-2-3-4.6-5.6-7.6-7.9-1.6-1.2-3.3-2.2-5-2.9-2.3-1-4.7-1.5-7.1-1.5-0.9 0-1.7 0.1-2.6 0.2-2.2 0.3-4.3 1.1-6.5 2.2-2.2 1.2-4.2 2.7-6.2 4.6-4.4 4.2-7.7 9-9.9 14.3-0.1 0.3-0.2 0.6-0.4 0.8-0.1 0.1-0.1 0.2-0.2 0.3-0.1-0.1-0.2-0.2-0.4-0.3-0.2-0.3-0.4-0.5-0.6-0.8l-0.1-0.1c-1.5-2.3-3.3-4.5-5.3-6.5-1.3-1.3-2.6-2.5-3.9-3.5-1.7-1.3-3.5-2.3-5.3-3.1-2.3-1-4.7-1.5-7.1-1.5-2.2 0-4.4 0.4-6.6 1.3-1.4 0.6-2.8 1.3-4.1 2.1-3.4 2.3-6.4 5.2-8.9 8.6-1 1.3-1.8 2.8-2.4 4.3-0.8 1.9-1.3 3.9-1.5 5.8-0.2 3.1 0.4 6.2 1.8 9.3 1 2.2 2.4 4.3 4.3 6.4 1.5 1.7 3.3 3.4 5.4 5.1l0.3 0.3c0.2 0.2 0.4 0.3 0.6 0.5s0.4 0.3 0.5 0.5 0.1 0.2 0 0.4l-0.5 0.5c-0.3 0.2-0.5 0.4-0.8 0.6-0.2 0.2-0.4 0.3-0.6 0.5-2.4 1.9-4.3 3.8-5.9 5.8-1.8 2.2-3 4.3-3.9 6.5-1.8 4.6-1.8 9.2 0.1 13.8 0.6 1.4 1.4 2.8 2.3 4.2 2.1 3 4.7 5.7 7.7 7.9 1.5 1.2 3.2 2.1 4.9 2.8 1.9 0.8 3.9 1.3 5.8 1.5 0.5 0 0.9 0.1 1.3 0.1 2.5 0 5-0.5 7.5-1.6 2.2-1 4.2-2.3 6.3-4 2-1.7 3.9-3.7 5.8-6.1l0.2-0.3c0.2-0.2 0.3-0.4 0.5-0.6l0.4-0.4c0.1-0.1 0.2-0.1 0.2-0.1 0.1 0 0.1 0 0.2 0.1l0.4 0.4c0.1 0.1 0.2 0.3 0.3 0.4s0.2 0.3 0.3 0.4l0.6 0.8c0.6 0.7 1.1 1.4 1.7 2 1.6 1.8 3.4 3.4 5.2 4.8 2.2 1.6 4.4 2.8 6.7 3.5 1.8 0.6 3.6 0.8 5.3 0.8 1.6 0 3.2-0.2 4.8-0.7 2-0.6 4-1.5 5.9-2.7 3.4-2.3 6.4-5.2 8.9-8.7 0.8-1.1 1.4-2.2 2-3.5 1-2.2 1.6-4.4 1.8-6.6 0.2-3-0.3-6-1.6-8.9-1-2.3-2.5-4.5-4.4-6.7-2.3-2.7-5.1-5.1-8.3-7.2l-0.3-0.2c-0.3-0.2-0.6-0.4-0.8-0.6-0.1-0.1-0.3-0.2-0.4-0.4 0.1-0.1 0.2-0.2 0.3-0.2 0.4-0.2 0.7-0.4 1.1-0.5 2.5-1.1 4.9-2.4 7.1-3.9 3.4-2.4 6.3-5 8.7-7.9 1.5-1.9 2.7-3.7 3.6-5.7 1.1-2.5 1.7-5 1.7-7.6 0.5-1 0.4-2.1 0.2-3.1zm-17.5 41.9c1.1 1.2 2 2.4 2.7 3.7 0.9 1.5 1.4 3 1.6 4.4 0.1 0.4 0.1 0.8 0.1 1.1v0.5c0 1.4-0.3 2.9-0.9 4.2-0.5 1.3-1.2 2.5-2.1 3.7-1.6 2.1-3.4 4-5.6 5.6-1.3 1-2.6 1.7-3.9 2.2-1.4 0.6-2.9 0.9-4.3 0.9s-2.7-0.3-4.1-0.8c-1.3-0.5-2.6-1.2-3.9-2.2-1-0.7-1.9-1.5-2.8-2.3-2.9-2.9-5.3-6-7.1-9.4 0 0-0.7-1.4-0.9-1.7s-0.3-0.6-0.5-0.8c-0.1-0.2-0.3-0.4-0.5-0.6-0.5-0.4-0.9-0.5-1.2-0.5s-0.8 0.1-1.2 0.6c-0.2 0.2-0.3 0.4-0.5 0.7s-0.3 0.6-0.5 0.9l-0.4 0.8c-0.2 0.4-0.5 0.9-0.7 1.3-1.8 3.4-4.2 6.5-7.2 9.3-1.2 1.2-2.5 2.1-3.8 2.9-0.8 0.5-1.7 0.9-2.5 1.2-1.3 0.5-2.7 0.8-4 0.8-1.4 0-2.7-0.3-4.1-0.8-1.1-0.4-2.1-0.9-3-1.6-2.8-1.9-5.3-4.3-7.2-7.2-0.6-0.9-1.1-1.9-1.5-2.9-1.1-2.8-1.1-5.5 0-8.3 0.5-1.3 1.3-2.7 2.3-4 0.9-1.2 1.8-2.3 3-3.4 2.7-2.6 5.7-4.8 8.8-6.4l0.3-0.1c0.6-0.3 1.1-0.6 1.7-0.9 0.4-0.2 0.7-0.4 1-0.6 0.6-0.5 0.7-1 0.7-1.3s-0.1-0.8-0.7-1.3c-0.3-0.2-0.6-0.4-1-0.6-0.5-0.3-1.1-0.6-1.6-0.8l-0.4-0.2c-3.4-1.7-6.5-4.1-9.3-6.9-1.5-1.5-2.6-2.9-3.5-4.4-0.6-0.9-1-1.8-1.3-2.8-0.9-2.6-0.9-5.2 0.1-7.8 0.4-1.1 1-2.2 1.7-3.2 1.9-2.7 4.2-5 6.9-6.9 0.9-0.7 2-1.2 3-1.6 1.4-0.6 2.9-0.9 4.3-0.9s2.8 0.3 4.2 0.8c1.3 0.5 2.5 1.2 3.7 2.1 1.1 0.8 2.3 1.8 3.4 2.9 2.9 3 5.1 6 6.8 9.4 1 2 1.8 4.2 2.3 6.3l0.1 0.5c0.1 0.5 0.3 1.1 0.4 1.6 0.5 2 1.3 3.8 2.3 5.5 2.1 3.5 5.2 6 9.1 7.6 0.9 0.4 1.9 0.7 3.1 1 0.3 0.1 0.6 0.1 0.9 0.2 4.3 0.9 8.4 2.8 12.2 5.6 2 1.3 3.8 3 5.5 4.9zm10.1-34.5c-0.5 1.3-1.2 2.5-2.2 3.8-0.8 1.1-1.8 2.2-2.8 3.2-3.2 3.1-6.4 5.4-10 7.1-3.1 1.4-6.1 2.3-9.2 2.5-0.6 0-1.2 0.1-1.9 0.1h-0.7c-1 0-2-0.2-3-0.7-2.7-1.2-4.7-3.1-6-5.8-0.6-1.2-0.8-2.4-0.9-3.6v-0.9c0-2.3 0.4-4.6 1.2-7.1s1.9-5 3.4-7.3c1.8-2.9 4-5.5 6.5-7.8 1.2-1 2.3-1.9 3.6-2.6 0.8-0.5 1.7-0.9 2.5-1.2 1.3-0.5 2.5-0.7 3.8-0.7 1.4 0 2.7 0.3 4.1 0.8 1.1 0.4 2.1 1 3.1 1.6 2.8 1.9 5.1 4.2 7 7 0.6 0.9 1.2 1.9 1.6 3 1.1 3 1.1 5.8-0.1 8.6z" fill="url(#a)"/>
</svg>
